<?xml version="1.0" encoding="utf-8"?>
<!-- Generator: Adobe Illustrator 19.1.0, SVG Export Plug-In . SVG Version: 6.00 Build 0)  -->
<svg version="1.1" xmlns="http://www.w3.org/2000/svg" xmlns:xlink="http://www.w3.org/1999/xlink" x="0px" y="0px"
	 viewBox="0 0 299.7 45.8" style="enable-background:new 0 0 299.7 45.8;" xml:space="preserve">
<style type="text/css">
	.st0{display:none;}
	.st1{display:inline;fill:#0C0C0C;}
	.st2{fill:#FFFFFF;}
	.st3{fill:none;stroke:#FFFFFF;stroke-width:0.8171;stroke-miterlimit:10;}
</style>
<g id="Layer_2" class="st0">
	<rect y="0" class="st1" width="300.1" height="45.8"/>
</g>
<g id="Layer_1">
	<g id="XMLID_22_">
		<g id="XMLID_36_">
			<g>
				<path class="st2" d="M34.3,16.8c0.9,0.2,2.4,0.4,3.3,0c0.3-0.1-0.7-0.7-1-0.9c-1.7-0.8-3.9-1.3-5.5-2.1
					c-1.3-0.7-2.3-1.9-3.6-2.5C26,10.6,23.8,9.9,23,9.7C20.2,9,17.8,10,17,10.6c-1.5,1.2-2.8,3.2-2.3,6.1c0.2,1.2,0.6,2.2,1.2,3.1
					c2.4,3.4,6.9,4.5,10.5,6.6c0.1,0.1,0.3,0.1,0.3,0c0.6-0.9,1.1-1.6,2.1-2c1-0.4,2.6-0.3,4-0.2c1.4,0.1,3-0.1,3.5-0.8
					c0.6-0.9,0.6-2.7-0.4-3.2c-0.5-0.3-1.3-0.3-1.8-0.6c-0.4-0.2-0.7-0.5-0.9-1C33,18.1,32.8,17.5,33,17
					C33.2,16.6,33.8,16.7,34.3,16.8z M27.5,15.5c-0.1,0.4-0.3,1.2-0.7,1.2c-0.4,0.1-0.7-0.4-1-0.5c-0.5-0.3-1.1-0.4-1.8-0.6
					c-0.5-0.2-1.3-0.4-1.5-0.9c-0.3-0.8,0.4-1.1,1-1.3c0.5-0.2,0.9-0.2,1.5-0.2c1,0,1.9,0.1,2.2,0.7C27.6,14.2,27.6,14.9,27.5,15.5z
					"/>
			</g>
		</g>
		<path id="XMLID_35_" class="st2" d="M0.5,18.4c0.1-0.3,0.1-0.4,0.2-0.6c0.3-0.4,3.6-4.2,8.9-5.1c0.7-0.1,1.2-0.1,1.3,0.2
			c0.2,0.5-0.2,0.8-0.7,1c-8.4,5-7.8,12.4-7.8,15.5c0,1.2-0.9,1.5-1.1,0.9C0.3,27.6-0.6,23.4,0.5,18.4z"/>
		<path id="XMLID_31_" class="st2" d="M6.1,7.4c0.2-0.2,0.3-0.3,0.5-0.3c3.2-0.8,6.4-0.3,8.7,0.7c0.5,0.2,0.8,0.6,0.4,0.8
			c-0.4,0.3-1.8,1.1-2.5,1.8c-0.2,0.2-0.6,0.2-0.8,0.2c-2.7-0.4-4.1-0.6-8.2,1c-0.6,0.3-1.2-0.1-0.9-0.6C4,10,5.2,8.3,6.1,7.4z"/>
		<path id="XMLID_30_" class="st2" d="M11.4,4.2c-0.7-0.1-0.7-0.6-0.4-0.8c0.8-0.5,2-1.2,3.2-1.7c0.4-0.1,0.6-0.2,0.9-0.2
			c0.9,0.1,2.4,0.7,4.2,2c2.1,1.5,4,4.3,2.7,4.1c-0.8-0.1-0.4-0.1-1.4-0.2c-0.9-0.1-1.6,0-2,0c-0.2,0-0.3-0.1-0.5-0.3
			C16.5,5.6,14.4,4.6,11.4,4.2z"/>
		<path id="XMLID_29_" class="st2" d="M45,29c-0.2,0.6-0.4,1.3-0.9,1c-0.9-0.7-2.9-1.9-4.8-2.6c-0.1,0-0.1-0.2-0.1-0.2
			c0.1-0.3,0.2-0.6,0.3-0.9c0.1-0.3,0.3-0.6,0.5-0.8c0.5-0.8,0.8-2.2,0.9-3c0.1-0.8,0-1.7-0.1-2.4c-0.1-0.3-0.3-0.7-0.3-1.1
			c0-0.3,0.2-0.7,0.2-1.1c0.1-1.2-1.4-2.1-2.1-2.5c-1.8-0.8-3.7-1.6-5.7-2.6c-1.1-0.6-2-1.8-2.9-2.5c-0.9-0.7-3.7-1.8-4.9-2.1
			c-0.3-0.1-0.3-0.2-0.4-0.4C24.3,5.4,22.9,3,20.5,1c-0.8-0.6,0.1-1,1.2-1C39.1-0.6,49.1,15.4,45,29z"/>
		<path id="XMLID_28_" class="st2" d="M38,21.3c0-0.1-0.1-0.4-0.1-0.5c0-0.2,0.3-0.4,0.5-0.5c0.2-0.2,0.5-0.4,0.7-0.5
			c0.1,0,0.1,0.1,0.1,0.1c0.6,1,0.4,3.4-0.1,4.5c-0.1,0.1-0.2,0.2-0.2,0.1c-0.2-0.5-0.6-1-1-1.2c-0.1-0.1-0.1-0.2-0.1-0.2
			C38,22.6,38.1,22,38,21.3z"/>
		<path id="XMLID_27_" class="st2" d="M30.1,27.2c0.1-0.4,0.3-0.6,0.6-0.8c0.6-0.4,1.6-0.4,2.5-0.4c0.9-0.1,1.9-0.1,2.5-0.4
			c0.4-0.2,0.8-0.7,1.4-0.4c0.3,0.1,0.4,0.4,0.5,0.6c0.1,0.3,0.2,0.6,0.1,1c-0.1,1.1-1,1.7-1.2,2.7c0,0.2,0,0.4-0.1,0.5
			c-0.7,0.7-2.1,0.6-3.3,0.4c-0.4,0-0.9-0.1-1.2-0.2c-0.2-0.1-0.4-0.3-0.6-0.5c-0.4-0.4-0.6-0.6-1-1.1c-0.1-0.2-0.4-0.4-0.5-0.6
			C29.8,27.9,30,27.4,30.1,27.2z"/>
		<path id="XMLID_26_" class="st2" d="M8.3,40.5c-0.5-0.4-0.7-0.7-0.9-1.1C5.2,35.9,4,23.9,6.8,19.8c0.9-1.4,1.8-0.8,1.5,0.3
			c-0.5,2.5-0.2,3.9,1,6.6c1.9,4,7.8,9.6,9.3,11.6c2.7,3.5,3.5,6,3.5,6.7c0,0.5-0.1,0.9-1,0.8C16.3,45.4,11.6,43.4,8.3,40.5z"/>
		<path id="XMLID_24_" class="st2" d="M11,24.2c-1.5-3.6-0.5-6.8,0.1-8c0.3-0.6,0.6-1,1.1-0.9c0.5,0.1,0.6,0.6,0.6,1.5
			c0.5,7.2,4.8,9.6,10.2,12.1c4.3,2.2,9.2,4.7,13.3,10.8c0.6,0.9,0.7,1.4,0,1.9c-2.5,1.7-4.8,2.9-8.1,3.7c-0.5,0.1-1,0-1.5-1.1
			C22.2,32.2,14.5,32.8,11,24.2z"/>
		<path id="XMLID_23_" class="st2" d="M39.5,38.8c-0.7,0.7-1.1,0.2-1.3-0.3c-1-2.1-1.9-3.8-3.5-5.5c-0.3-0.3-0.1-0.7,0.3-0.6
			c0.5,0,0.8,0,1.4-0.2c0.5-0.2,1-0.9,1.3-1.8c0.2-0.7,0.2-0.9,0.6-0.9c0.1,0,0.3,0,0.4,0c0.5,0.1,1.1,0.6,1.5,0.9
			c1,0.8,2.6,2.5,2.8,3.1c0.2,0.4,0,0.6-0.1,0.8C42.4,35.3,40.7,37.6,39.5,38.8z"/>
	</g>
	<g id="XMLID_62_">
		<g id="XMLID_588_">
			<path id="XMLID_589_" class="st2" d="M67.7,7.6v7.5h-1.9V7.6h-2.5V6h6.9v1.6H67.7z"/>
			<path id="XMLID_591_" class="st2" d="M75.1,15.1v-4.3c0-0.7-0.2-1-0.9-1c-0.7,0-1.2,0.7-1.4,0.8v4.5H71V5.2h1.8v4
				c0.3-0.4,1-1,2.1-1c1.5,0,2,0.9,2,2.2v4.6H75.1z"/>
			<path id="XMLID_593_" class="st2" d="M81.6,13.9c0.9,0,1.4-0.3,1.7-0.5l0.6,1.2c-0.4,0.2-1.1,0.6-2.5,0.6c-2.2,0-3.5-1.4-3.5-3.5
				c0-2.1,1.4-3.4,3.3-3.4c2.1,0,3.1,1.4,2.9,3.9h-4.2C79.9,13.2,80.5,13.9,81.6,13.9z M82.3,10.9c0-0.7-0.3-1.4-1.1-1.4
				c-0.8,0-1.2,0.5-1.3,1.4H82.3z"/>
			<path id="XMLID_596_" class="st2" d="M94.6,15.1l-3.5-5c-0.5-0.7-0.9-1.3-0.9-1.4h0c0,0,0.1,0.6,0.1,1.2v5.2h-1.7V6h1.9l3.3,4.7
				c0.5,0.8,0.9,1.5,1,1.5h0c0,0-0.1-0.7-0.1-1.4V6h1.7v9.1H94.6z"/>
			<path id="XMLID_598_" class="st2" d="M101.2,13.9c0.9,0,1.4-0.3,1.7-0.5l0.6,1.2c-0.4,0.2-1.1,0.6-2.5,0.6
				c-2.2,0-3.5-1.4-3.5-3.5c0-2.1,1.4-3.4,3.3-3.4c2.1,0,3.1,1.4,2.9,3.9h-4.2C99.5,13.2,100,13.9,101.2,13.9z M101.9,10.9
				c0-0.7-0.3-1.4-1.1-1.4c-0.8,0-1.2,0.5-1.3,1.4H101.9z"/>
			<path id="XMLID_601_" class="st2" d="M112,15.1h-1.6l-1.4-4.4h0l-1.4,4.4h-1.6l-1.9-6.6h1.9l1,4.2h0l1.1-4.2h1.7l1.1,4.3h0l1-4.3
				h1.8L112,15.1z"/>
			<path id="XMLID_603_" class="st2" d="M121.8,11.6v3.4h-1.9v-3.4l-3-5.7h2.1l1.9,3.9h0l1.9-3.9h1.9L121.8,11.6z"/>
			<path id="XMLID_605_" class="st2" d="M127.3,15.2c-2.3,0-3.3-1.8-3.3-3.5s1-3.5,3.3-3.5c2.3,0,3.4,1.7,3.4,3.4
				C130.6,13.4,129.6,15.2,127.3,15.2z M127.2,9.6c-1,0-1.4,0.9-1.4,2.1c0,1.2,0.4,2.1,1.4,2.1c1,0,1.4-0.8,1.4-2.1
				S128.2,9.6,127.2,9.6z"/>
			<path id="XMLID_608_" class="st2" d="M135.6,10c-0.1-0.1-0.3-0.2-0.7-0.2c-0.8,0-1.3,0.7-1.4,1v4.2h-1.8V8.4h1.8v0.9
				c0.3-0.5,0.8-1.1,1.7-1.1c0.5,0,0.8,0.1,0.9,0.2L135.6,10z"/>
			<path id="XMLID_610_" class="st2" d="M138.7,15.1h-1.8V5.2h1.8v5.8l2.2-2.7h2l-2.5,3l2.5,3.7h-2.1l-2.1-3.3V15.1z"/>
			<path id="XMLID_612_" class="st2" d="M149.7,11.8h-0.8v3.2h-1.9V6h3c2,0,3.5,0.9,3.5,2.9C153.4,10.8,151.9,11.8,149.7,11.8z
				 M149.7,7.4h-0.9v2.9h0.9c1.2,0,1.7-0.5,1.7-1.5C151.4,7.9,150.9,7.4,149.7,7.4z"/>
			<path id="XMLID_615_" class="st2" d="M156.1,8.4v4.3c0,0.7,0.2,1,0.9,1c0.7,0,1.2-0.7,1.4-0.8V8.4h1.8v4.7c0,0.8,0.1,1.5,0.2,1.9
				h-1.8c-0.1-0.2-0.1-0.6-0.1-0.9c-0.4,0.4-1,1-2.1,1c-1.5,0-2-0.9-2-2.2V8.4H156.1z"/>
			<path id="XMLID_617_" class="st2" d="M163.5,5.2v3.7c0.3-0.3,0.9-0.7,1.6-0.7c1.7,0,2.8,1.1,2.8,3.4c0,2.3-1.5,3.5-3.5,3.5
				c-1.5,0-2.4-0.4-2.7-0.5V5.2H163.5z M163.5,13.6c0.1,0,0.4,0.2,0.9,0.2c1,0,1.6-0.7,1.6-2.1c0-1.2-0.4-2-1.4-2
				c-0.6,0-1,0.4-1.1,0.5V13.6z"/>
			<path id="XMLID_620_" class="st2" d="M169.1,15.1V5.2h1.8v9.8H169.1z"/>
			<path id="XMLID_622_" class="st2" d="M173.7,7.6c-0.6,0-1.1-0.5-1.1-1.1c0-0.6,0.5-1.1,1.1-1.1s1.1,0.5,1.1,1.1
				C174.8,7,174.3,7.6,173.7,7.6z M172.8,15.1V8.4h1.8v6.6H172.8z"/>
			<path id="XMLID_625_" class="st2" d="M179.3,15.2c-2.1,0-3.4-1.4-3.4-3.5c0-2.2,1.5-3.5,3.5-3.5c1.1,0,1.7,0.3,2,0.5l-0.6,1.2
				c-0.3-0.2-0.7-0.4-1.4-0.4c-1.1,0-1.6,0.8-1.6,2.1s0.5,2.1,1.7,2.1c0.8,0,1.2-0.3,1.4-0.4l0.6,1.2
				C181.1,14.8,180.5,15.2,179.3,15.2z"/>
			<path id="XMLID_627_" class="st2" d="M185.7,15.1V6h1.9v7.5h3.4v1.6H185.7z"/>
			<path id="XMLID_629_" class="st2" d="M193,7.6c-0.6,0-1.1-0.5-1.1-1.1c0-0.6,0.5-1.1,1.1-1.1c0.6,0,1.1,0.5,1.1,1.1
				C194.1,7,193.6,7.6,193,7.6z M192.1,15.1V8.4h1.8v6.6H192.1z"/>
			<path id="XMLID_632_" class="st2" d="M197.5,5.2v3.7c0.3-0.3,0.9-0.7,1.6-0.7c1.7,0,2.8,1.1,2.8,3.4c0,2.3-1.5,3.5-3.5,3.5
				c-1.5,0-2.4-0.4-2.7-0.5V5.2H197.5z M197.5,13.6c0.1,0,0.4,0.2,0.9,0.2c1,0,1.6-0.7,1.6-2.1c0-1.2-0.4-2-1.4-2
				c-0.6,0-1,0.4-1.1,0.5V13.6z"/>
			<path id="XMLID_635_" class="st2" d="M207,10c-0.1-0.1-0.3-0.2-0.7-0.2c-0.8,0-1.3,0.7-1.4,1v4.2H203V8.4h1.8v0.9
				c0.3-0.5,0.8-1.1,1.7-1.1c0.5,0,0.7,0.1,0.9,0.2L207,10z"/>
			<path id="XMLID_637_" class="st2" d="M211.7,15.1c-0.1-0.2-0.1-0.5-0.1-0.7c-0.3,0.4-0.9,0.9-1.9,0.9c-1.1,0-2-0.7-2-1.9
				c0-1.7,1.8-2.4,3.5-2.4h0.2v-0.4c0-0.6-0.2-0.9-1.1-0.9c-0.9,0-1.4,0.4-1.7,0.6l-0.8-1.1c0.4-0.4,1.3-1,2.7-1
				c1.8,0,2.7,0.7,2.7,2.5v2.4c0,0.9,0.1,1.5,0.2,2H211.7z M211.5,12.1h-0.2c-1.1,0-1.8,0.3-1.8,1.1c0,0.5,0.4,0.7,0.8,0.7
				c0.7,0,1-0.4,1.2-0.6V12.1z"/>
			<path id="XMLID_640_" class="st2" d="M218.7,10c-0.1-0.1-0.3-0.2-0.7-0.2c-0.8,0-1.3,0.7-1.4,1v4.2h-1.8V8.4h1.8v0.9
				c0.3-0.5,0.8-1.1,1.7-1.1c0.5,0,0.7,0.1,0.9,0.2L218.7,10z"/>
			<path id="XMLID_642_" class="st2" d="M219.4,8.4h1.9l1.5,4.4h0.1l1.4-4.4h1.9l-2.7,7.3c-0.6,1.6-1.3,2.5-3.1,2.5
				c-0.6,0-0.9-0.1-1-0.1l0.3-1.4c0.1,0,0.2,0.1,0.6,0.1c0.9,0,1.3-0.5,1.5-1.2l0.2-0.7L219.4,8.4z"/>
		</g>
		<g id="XMLID_523_">
			<path id="XMLID_524_" class="st2" d="M62.2,31.1c0-3.4,2.3-6.5,6-6.5c1.4,0,2.5,0.3,3.4,0.9l-0.5,0.8c-0.8-0.5-1.7-0.8-2.9-0.8
				c-3.1,0-4.9,2.6-4.9,5.6c0,3,1.8,5.7,5,5.7c1.3,0,2.4-0.4,3.1-1.1l0.5,0.7c-0.8,0.7-2.1,1.2-3.7,1.2
				C64.4,37.6,62.2,34.5,62.2,31.1z"/>
			<path id="XMLID_526_" class="st2" d="M73.1,32.9c0-2.3,1.2-4.7,4-4.7c2.8,0,4.1,2.4,4.1,4.7c0,2.3-1.3,4.7-4.1,4.7
				C74.3,37.6,73.1,35.1,73.1,32.9z M80.2,32.9c0-2-1.1-3.9-3.1-3.9c-2,0-3,1.8-3,3.8c0,2,1,3.9,3,3.9
				C79.2,36.7,80.2,34.9,80.2,32.9z"/>
			<path id="XMLID_529_" class="st2" d="M83.5,28.4h1v1.4c0.4-0.6,1.3-1.6,2.8-1.6c1.4,0,2.1,0.7,2.3,1.7c0.6-0.8,1.6-1.7,2.9-1.7
				c1.8,0,2.5,1.2,2.5,2.8v6.4h-1v-6.2c0-1.3-0.4-2.1-1.7-2.1c-1.2,0-2.1,1-2.6,1.6v6.7h-1v-6.2c0-1.3-0.4-2.1-1.7-2.1
				c-1.3,0-2.3,1.2-2.6,1.8v6.5h-1V28.4z"/>
			<path id="XMLID_531_" class="st2" d="M98,28.4h1v1.4c0.4-0.6,1.3-1.6,2.8-1.6c1.4,0,2.1,0.7,2.3,1.7c0.6-0.8,1.6-1.7,2.9-1.7
				c1.8,0,2.5,1.2,2.5,2.8v6.4h-1v-6.2c0-1.3-0.4-2.1-1.7-2.1c-1.2,0-2.1,1-2.6,1.6v6.7h-1v-6.2c0-1.3-0.4-2.1-1.7-2.1
				c-1.3,0-2.3,1.2-2.6,1.8v6.5h-1V28.4z"/>
			<path id="XMLID_533_" class="st2" d="M112.5,34.7v-6.3h1v6.1c0,1.3,0.5,2.2,1.8,2.2c1.3,0,2.4-1.3,2.7-1.8v-6.5h1v7.2
				c0,0.7,0.1,1.4,0.2,1.7h-1c-0.1-0.3-0.1-1-0.1-1.5c-0.4,0.7-1.4,1.7-3,1.7C113.2,37.6,112.5,36.3,112.5,34.7z"/>
			<path id="XMLID_535_" class="st2" d="M122.2,28.4h1v1.4c0.7-0.9,1.7-1.6,3-1.6c1.9,0,2.6,1.2,2.6,2.8v6.4h-1v-6.2
				c0-1.3-0.5-2.1-1.8-2.1c-1.1,0-2.2,0.9-2.8,1.8v6.5h-1V28.4z"/>
			<path id="XMLID_537_" class="st2" d="M131.6,25.7c0-0.4,0.3-0.8,0.7-0.8c0.4,0,0.8,0.3,0.8,0.8c0,0.4-0.3,0.8-0.8,0.8
				C131.9,26.5,131.6,26.1,131.6,25.7z M131.8,28.4h1v9h-1V28.4z"/>
			<path id="XMLID_540_" class="st2" d="M136.4,35.3v-6.2h-1.5v-0.8h1.5v-2.6h1v2.6h2.3v0.8h-2.3v6.1c0,0.9,0.3,1.4,1.1,1.4
				c0.5,0,1.1-0.3,1.2-0.4L140,37c-0.3,0.2-0.9,0.5-1.7,0.5C137,37.6,136.4,36.8,136.4,35.3z"/>
			<path id="XMLID_542_" class="st2" d="M140.6,41.6l0.1-0.8c0.1,0,0.3,0.1,0.6,0.1c1.3,0,1.8-0.8,2.4-2.3l0.5-1.3l-3.4-8.9h1.1
				l2.8,7.7l2.8-7.7h1l-3.9,10.3c-0.6,1.7-1.3,3-3.3,3C141,41.7,140.8,41.6,140.6,41.6z"/>
			<path id="XMLID_544_" class="st2" d="M153.8,31.1c0-3.5,2.3-6.5,6-6.5c3.7,0,6,3,6,6.5s-2.3,6.5-6,6.5S153.8,34.6,153.8,31.1z
				 M164.9,31.1c0-3-1.8-5.6-5-5.6c-3.1,0-5,2.6-5,5.6c0,3,1.8,5.6,5,5.6C163,36.7,164.9,34.1,164.9,31.1z"/>
			<path id="XMLID_547_" class="st2" d="M168.4,28.4h1v1.6c0.3-0.7,1.1-1.8,2.4-1.8c0.4,0,0.7,0.1,0.9,0.2l-0.2,0.9
				c-0.2-0.1-0.4-0.1-0.7-0.1c-1.2,0-2.1,1.5-2.3,2v6.3h-1V28.4z"/>
			<path id="XMLID_549_" class="st2" d="M173.6,35.2c0-2.4,2.7-3.1,4.7-3.1h0.4v-1c0-1.5-0.6-2.1-2-2.1c-0.8,0-1.6,0.3-2.3,1
				l-0.5-0.7c0.8-0.8,1.8-1.1,2.9-1.1c1.8,0,2.9,0.9,2.9,2.9v4.5c0,0.8,0.1,1.4,0.2,1.8h-1c-0.1-0.3-0.1-0.8-0.1-1.1
				c-0.6,0.8-1.6,1.3-2.7,1.3C174.7,37.6,173.6,36.6,173.6,35.2z M178.8,35.4v-2.4h-0.4c-2,0-3.7,0.6-3.7,2.3c0,1,0.8,1.5,1.6,1.5
				C177.3,36.7,178.1,36.2,178.8,35.4z"/>
			<path id="XMLID_552_" class="st2" d="M182.9,23.8h1v13.6h-1V23.8z"/>
			<path id="XMLID_554_" class="st2" d="M191.4,24.8h1v5.5h7.6v-5.5h1v12.5h-1v-6.2h-7.6v6.2h-1V24.8z"/>
			<path id="XMLID_556_" class="st2" d="M204.1,25.7c0-0.4,0.3-0.8,0.7-0.8c0.4,0,0.8,0.3,0.8,0.8c0,0.4-0.3,0.8-0.8,0.8
				C204.4,26.5,204.1,26.1,204.1,25.7z M204.3,28.4h1v9h-1V28.4z"/>
			<path id="XMLID_559_" class="st2" d="M207.6,36.7l0.4-0.8c0.4,0.3,1.3,0.8,2.3,0.8c1.2,0,2-0.6,2-1.5c0-1-0.9-1.4-2.1-2
				c-1.4-0.6-2.5-1.2-2.5-2.7c0-1.4,1-2.4,2.7-2.4c1.2,0,2.1,0.5,2.5,0.8l-0.5,0.7c-0.4-0.3-1.1-0.7-2.1-0.7c-1.1,0-1.7,0.6-1.7,1.4
				c0,1,0.9,1.4,1.9,1.9c1.4,0.6,2.6,1.2,2.6,2.7c0,1.5-1.2,2.5-3,2.5C209.2,37.6,208.2,37.1,207.6,36.7z"/>
			<path id="XMLID_561_" class="st2" d="M216.1,35.3v-6.2h-1.5v-0.8h1.5v-2.6h1v2.6h2.3v0.8h-2.3v6.1c0,0.9,0.3,1.4,1.1,1.4
				c0.5,0,1.1-0.3,1.2-0.4l0.4,0.7c-0.3,0.2-0.9,0.5-1.7,0.5C216.7,37.6,216.1,36.8,216.1,35.3z"/>
			<path id="XMLID_563_" class="st2" d="M220.9,32.9c0-2.3,1.2-4.7,4-4.7c2.8,0,4.1,2.4,4.1,4.7c0,2.3-1.3,4.7-4.1,4.7
				C222.1,37.6,220.9,35.1,220.9,32.9z M228,32.9c0-2-1.1-3.9-3.1-3.9c-2,0-3,1.8-3,3.8c0,2,1,3.9,3,3.9C227,36.7,228,34.9,228,32.9
				z"/>
			<path id="XMLID_566_" class="st2" d="M231.3,28.4h1v1.6c0.3-0.7,1.1-1.8,2.4-1.8c0.4,0,0.7,0.1,0.9,0.2l-0.2,0.9
				c-0.2-0.1-0.4-0.1-0.7-0.1c-1.2,0-2.1,1.5-2.3,2v6.3h-1V28.4z"/>
			<path id="XMLID_568_" class="st2" d="M236.1,41.6l0.1-0.8c0.1,0,0.3,0.1,0.6,0.1c1.3,0,1.8-0.8,2.4-2.3l0.5-1.3l-3.4-8.9h1.1
				l2.8,7.7l2.8-7.7h1l-3.9,10.3c-0.6,1.7-1.3,3-3.3,3C236.5,41.7,236.3,41.6,236.1,41.6z"/>
			<path id="XMLID_570_" class="st2" d="M250.2,24.8h2.7c2.6,0,4.3,1.3,4.3,3.5c0,2.3-1.6,3.7-4.4,3.7h-1.6v5.3h-1V24.8z
				 M252.8,31.1c2.4,0,3.4-1.1,3.4-2.8c0-1.6-0.9-2.7-3.3-2.7h-1.6v5.4H252.8z"/>
			<path id="XMLID_573_" class="st2" d="M259.5,28.4h1v1.6c0.3-0.7,1.1-1.8,2.4-1.8c0.4,0,0.7,0.1,0.9,0.2l-0.2,0.9
				c-0.2-0.1-0.4-0.1-0.7-0.1c-1.2,0-2.1,1.5-2.3,2v6.3h-1V28.4z"/>
			<path id="XMLID_575_" class="st2" d="M264.6,32.9c0-2.3,1.2-4.7,4-4.7s4.1,2.4,4.1,4.7c0,2.3-1.3,4.7-4.1,4.7
				S264.6,35.1,264.6,32.9z M271.8,32.9c0-2-1.1-3.9-3.1-3.9c-2,0-3,1.8-3,3.8c0,2,1,3.9,3,3.9C270.8,36.7,271.8,34.9,271.8,32.9z"
				/>
			<path id="XMLID_578_" class="st2" d="M272.9,41.5l0.2-0.8c0.1,0.1,0.3,0.1,0.6,0.1c1.1,0,1.4-0.9,1.4-2.3V28.4h1v10.4
				c0,1.7-0.7,2.9-2.3,2.9C273.3,41.7,273,41.6,272.9,41.5z M274.8,25.7c0-0.4,0.4-0.8,0.8-0.8c0.4,0,0.8,0.3,0.8,0.8
				c0,0.4-0.3,0.8-0.8,0.8C275.2,26.5,274.8,26.1,274.8,25.7z"/>
			<path id="XMLID_581_" class="st2" d="M278.3,32.8c0-2.5,1.5-4.6,3.9-4.6c2.3,0,3.6,1.8,3.4,4.4h-6.2c0,0.1,0,0.2,0,0.2
				c0,2.1,0.9,3.9,3,3.9c1.1,0,2.1-0.5,2.6-0.8l0.4,0.8c-0.6,0.4-1.6,0.9-3.1,0.9C279.6,37.6,278.3,35.4,278.3,32.8z M284.6,31.8
				c0-1.4-0.7-2.7-2.4-2.7c-1.6,0-2.5,1.2-2.7,2.7H284.6z"/>
			<path id="XMLID_584_" class="st2" d="M287.1,32.8c0-2.8,1.6-4.7,4-4.7c1.3,0,2.2,0.5,2.7,0.9l-0.5,0.7c-0.5-0.4-1.2-0.8-2.2-0.8
				c-2,0-2.9,1.7-2.9,3.8c0,2,0.9,3.9,2.9,3.9c1,0,1.9-0.5,2.3-0.8l0.4,0.7c-0.5,0.4-1.4,0.9-2.8,0.9
				C288.4,37.6,287.1,35.3,287.1,32.8z"/>
			<path id="XMLID_586_" class="st2" d="M296.4,35.3v-6.2h-1.5v-0.8h1.5v-2.6h1v2.6h2.3v0.8h-2.3v6.1c0,0.9,0.3,1.4,1.1,1.4
				c0.5,0,1.1-0.3,1.2-0.4l0.4,0.7c-0.3,0.2-0.9,0.5-1.7,0.5C297,37.6,296.4,36.8,296.4,35.3z"/>
		</g>
	</g>
	<line id="XMLID_19_" class="st3" x1="53.2" y1="0" x2="53.2" y2="45.8"/>
	<g>
	</g>
	<g>
	</g>
	<g>
	</g>
	<g>
	</g>
	<g>
	</g>
	<g>
	</g>
	<g>
	</g>
	<g>
	</g>
	<g>
	</g>
	<g>
	</g>
	<g>
	</g>
	<g>
	</g>
	<g>
	</g>
	<g>
	</g>
	<g>
	</g>
</g>
</svg>
